<?xml version="1.0" encoding="utf-8"?>
<!DOCTYPE svg PUBLIC "-//W3C//DTD SVG 20010904//EN" "http://www.w3.org/TR/2001/REC-SVG-20010904/DTD/svg10.dtd">
<svg version="1.0" xmlns="http://www.w3.org/2000/svg" width="642pt" height="642pt" viewBox="0 0 642 642" style="" preserveAspectRatio="xMidYMid meet">
<g fill="#01ACD8FD" stroke="#01ACD8FD">
<path d="M 406.956 215.569 C 405.605 216.317 403.713 216.945 402.750 216.965 C 401.788 216.984 401.000 217.379 401.000 217.843 C 401.000 218.306 399.425 219.533 397.500 220.570 C 395.575 221.607 394.000 222.814 394.000 223.252 C 394.000 223.691 392.848 224.488 391.440 225.023 C 390.032 225.558 389.118 226.381 389.408 226.852 C 389.699 227.323 388.826 228.214 387.469 228.832 C 386.111 229.451 385.000 230.717 385.000 231.645 C 385.000 232.574 384.721 233.055 384.381 232.714 C 384.040 232.374 383.108 232.749 382.310 233.548 C 381.511 234.346 381.214 235.000 381.651 235.000 C 382.088 235.000 381.442 235.702 380.217 236.561 C 378.991 237.419 377.253 239.557 376.355 241.311 C 375.457 243.065 373.434 245.741 371.861 247.259 C 370.287 248.776 369.000 250.688 369.000 251.509 C 369.000 252.329 368.523 253.000 367.941 253.000 C 367.359 253.000 367.160 253.450 367.500 254.000 C 367.840 254.550 367.566 255.000 366.892 255.000 C 366.218 255.000 365.945 255.279 366.286 255.619 C 366.626 255.960 366.247 256.896 365.443 257.700 C 364.639 258.504 364.237 259.575 364.550 260.081 C 364.862 260.586 364.694 261.000 364.176 261.000 C 363.657 261.000 362.972 261.788 362.653 262.750 C 362.333 263.713 361.439 266.171 360.666 268.214 C 359.893 270.256 359.502 272.169 359.797 272.464 C 360.092 272.759 359.808 273.000 359.167 273.000 C 358.472 273.000 358.000 274.619 358.000 277.000 C 358.000 279.200 357.550 281.000 357.000 281.000 C 356.450 281.000 356.000 281.914 356.000 283.032 C 356.000 284.150 355.338 286.649 354.529 288.586 C 353.585 290.844 353.007 295.945 352.918 302.804 C 352.698 319.625 352.818 321.000 354.500 321.000 C 355.325 321.000 356.000 321.675 356.000 322.500 C 356.000 323.325 356.477 324.000 357.059 324.000 C 357.641 324.000 357.840 324.450 357.500 325.000 C 357.160 325.550 357.584 326.000 358.441 326.000 C 359.298 326.000 360.012 326.563 360.027 327.250 C 360.042 327.938 363.048 329.838 366.707 331.474 C 372.741 334.171 374.200 334.422 382.360 334.162 C 390.419 333.906 397.454 332.230 398.965 330.206 C 399.259 329.811 401.196 328.224 403.269 326.679 C 405.363 325.118 406.738 323.386 406.364 322.780 C 405.962 322.130 406.155 321.978 406.841 322.402 C 407.538 322.832 408.484 322.005 409.239 320.306 C 409.925 318.763 410.939 316.922 411.493 316.215 C 412.047 315.509 412.950 314.366 413.500 313.677 C 415.402 311.292 417.000 308.021 417.000 306.514 C 417.000 305.681 417.360 305.000 417.799 305.000 C 418.630 305.000 420.783 299.723 421.526 295.867 C 421.761 294.646 422.379 293.221 422.898 292.702 C 423.418 292.182 423.606 291.136 423.315 290.378 C 423.024 289.620 423.252 289.000 423.821 289.000 C 424.390 289.000 425.174 286.413 425.563 283.250 C 425.952 280.088 426.634 277.264 427.079 276.976 C 428.798 275.861 430.545 241.000 428.881 241.000 C 428.279 241.000 428.024 240.380 428.315 239.621 C 429.666 236.102 424.616 223.044 420.078 218.321 C 415.923 213.998 411.478 213.065 406.956 215.569 "/></g>
<g fill="#FD9500FD" stroke="#FD9500FD">
<path d="M 230.838 223.638 C 227.673 225.681 224.693 231.465 222.976 238.901 C 221.514 245.231 222.135 267.708 223.987 275.500 C 226.357 285.471 228.238 291.616 230.723 297.500 C 232.116 300.800 233.922 305.075 234.735 307.000 C 237.332 313.142 246.118 325.306 248.189 325.625 C 248.635 325.694 248.667 325.806 248.260 325.875 C 246.422 326.186 253.974 331.730 261.000 335.230 C 266.620 338.028 278.957 338.254 281.877 335.611 C 282.859 334.723 283.963 334.297 284.331 334.664 C 284.699 335.032 285.000 334.733 285.000 334.000 C 285.000 333.267 285.282 332.949 285.627 333.293 C 287.277 334.944 297.000 327.700 297.000 324.820 C 297.000 323.819 297.375 323.000 297.833 323.000 C 301.012 323.000 298.331 295.410 294.129 284.887 C 293.605 283.574 292.139 279.800 290.872 276.500 C 288.475 270.257 281.347 257.746 279.857 257.167 C 279.386 256.983 279.000 256.163 279.000 255.343 C 279.000 253.557 268.393 240.788 266.106 239.820 C 265.223 239.446 264.885 239.109 265.356 239.070 C 267.251 238.915 254.844 228.552 248.512 225.003 C 243.161 222.003 234.417 221.327 230.838 223.638 "/></g>
<g fill="#243551FD" stroke="#243551FD">
<path d="M 315.923 306.923 L 313.000 309.846 313.000 356.989 C 313.000 387.410 313.365 404.814 314.030 406.055 C 314.596 407.114 316.424 408.685 318.091 409.547 C 320.556 410.822 321.767 410.902 324.569 409.977 C 326.464 409.352 328.478 407.976 329.043 406.920 C 330.350 404.478 332.071 404.486 334.713 406.948 C 338.179 410.176 346.381 412.344 352.674 411.694 C 375.591 409.329 388.428 383.907 377.955 361.628 C 375.304 355.988 370.358 351.057 363.736 347.453 C 355.039 342.719 342.659 343.752 335.744 349.788 C 334.778 350.631 333.688 351.021 333.322 350.655 C 332.955 350.289 332.764 341.952 332.897 332.128 C 333.149 313.534 332.513 309.656 328.567 305.710 C 325.711 302.854 319.386 303.460 315.923 306.923 M 356.826 364.072 C 358.516 365.407 360.178 367.294 360.521 368.265 C 360.864 369.235 361.471 369.827 361.870 369.581 C 362.269 369.334 362.700 372.590 362.828 376.816 C 363.018 383.058 362.682 385.111 361.040 387.759 C 353.279 400.272 335.020 395.914 332.491 380.946 C 331.300 373.898 335.783 364.342 341.418 361.914 C 345.221 360.277 353.489 361.435 356.826 364.072 "/></g>
<g fill="#243551FD" stroke="#243551FD">
<path d="M 130.400 348.400 C 125.617 353.183 125.849 357.093 132.049 376.261 C 137.866 394.247 142.715 404.844 146.484 407.809 C 153.271 413.147 161.915 412.673 166.336 406.719 C 167.651 404.948 170.701 397.989 173.113 391.252 C 175.526 384.516 177.921 379.144 178.436 379.314 C 178.951 379.485 180.683 383.646 182.284 388.562 C 188.266 406.919 190.637 410.523 197.402 411.538 C 202.049 412.235 207.905 410.025 211.133 406.356 C 216.938 399.760 229.000 365.429 229.000 355.506 C 229.000 352.625 228.243 351.043 225.600 348.400 C 218.274 341.074 211.126 345.569 207.946 359.500 C 205.940 368.289 200.708 385.000 199.963 385.000 C 199.056 385.000 198.150 382.606 192.961 366.500 C 190.657 359.350 188.128 352.246 187.341 350.712 C 185.502 347.130 180.114 344.504 176.477 345.416 C 171.076 346.772 168.773 350.669 163.000 368.221 C 159.975 377.417 157.077 384.814 156.561 384.658 C 155.615 384.372 152.335 374.626 149.440 363.500 C 148.581 360.200 147.440 355.815 146.903 353.756 C 144.610 344.964 136.476 342.324 130.400 348.400 "/></g>
<g fill="#243551FD" stroke="#243551FD">
<path d="M 258.500 344.704 C 254.199 345.720 246.163 350.238 243.226 353.291 C 236.473 360.311 232.268 372.988 233.479 382.681 C 234.196 388.417 239.646 400.184 242.748 402.694 C 255.347 412.888 269.519 414.594 278.178 406.960 C 282.187 403.426 282.598 403.377 284.128 406.250 C 287.035 411.707 293.974 412.786 298.076 408.419 L 300.500 405.839 300.146 379.669 C 299.765 351.584 299.326 349.017 294.526 346.830 C 291.502 345.452 287.623 346.415 285.045 349.182 C 283.133 351.234 282.940 351.256 281.129 349.617 C 276.566 345.487 265.426 343.069 258.500 344.704 M 275.685 363.551 C 280.278 367.967 281.454 371.068 281.388 378.597 C 281.316 386.774 279.874 389.887 274.696 393.044 C 264.885 399.026 252.302 391.553 251.879 379.491 C 251.602 371.603 253.895 366.761 259.823 362.718 C 263.431 360.259 272.769 360.749 275.685 363.551 "/></g>
<g fill="#243551FD" stroke="#243551FD">
<path d="M 412.500 344.935 C 404.206 346.954 395.005 354.766 391.241 362.985 C 389.143 367.567 388.697 370.109 388.608 378.014 C 388.508 386.819 388.740 388.016 391.720 394.076 C 396.822 404.450 404.784 410.369 415.299 411.605 C 421.719 412.360 429.235 410.250 433.649 406.454 C 436.726 403.808 438.000 403.396 438.000 405.045 C 438.000 405.620 439.105 407.195 440.455 408.545 C 443.837 411.928 448.350 411.804 451.925 408.229 L 454.696 405.458 454.279 379.979 C 454.050 365.966 453.425 353.348 452.889 351.941 C 450.776 346.388 443.339 344.758 439.494 349.006 C 437.900 350.768 437.717 350.748 434.302 348.430 C 428.266 344.334 420.249 343.049 412.500 344.935 M 427.971 362.485 C 433.365 365.274 435.000 368.884 435.000 378.000 C 435.000 387.106 433.622 390.610 428.960 393.364 C 422.835 396.983 411.976 394.333 409.020 388.500 C 408.184 386.850 407.109 385.215 406.631 384.867 C 405.047 383.715 406.384 370.474 408.274 368.583 C 409.223 367.634 410.000 366.483 410.000 366.027 C 410.000 365.570 411.463 364.260 413.250 363.115 C 417.121 360.636 423.839 360.348 427.971 362.485 "/></g>
<g fill="#243551FD" stroke="#243551FD">
<path d="M 485.757 345.020 C 474.830 347.782 464.918 358.726 462.039 371.209 C 458.576 386.219 465.795 401.331 479.693 408.166 C 485.834 411.187 487.272 411.492 494.986 411.420 C 502.435 411.349 504.258 410.953 509.560 408.251 C 519.726 403.071 525.667 394.803 527.837 382.812 C 530.391 368.706 521.749 352.875 508.167 346.778 C 503.171 344.535 491.346 343.607 485.757 345.020 M 502.802 363.702 C 507.677 367.342 509.384 370.670 509.811 377.370 C 510.167 382.964 509.895 384.201 507.524 387.785 C 502.871 394.816 495.437 396.794 487.975 392.987 C 483.275 390.590 480.985 387.389 479.960 381.783 C 478.458 373.570 482.667 365.104 489.909 361.767 C 492.574 360.540 500.074 361.665 502.802 363.702 "/></g>
<g fill="#243551FD" stroke="#243551FD">
<path d="M 403.950 207.260 C 374.539 219.128 344.933 267.733 345.023 304.000 C 345.046 313.146 346.683 318.274 351.668 324.809 C 354.941 329.100 363.699 334.724 368.664 335.723 C 372.083 336.411 371.848 336.181 366.500 333.604 C 363.200 332.014 360.275 330.697 360.000 330.678 C 359.031 330.610 357.000 328.129 357.000 327.012 C 357.000 326.391 356.552 326.159 356.004 326.497 C 355.457 326.836 354.453 325.850 353.775 324.306 C 353.096 322.763 352.307 321.275 352.020 321.000 C 349.381 318.464 349.494 289.000 352.143 289.000 C 352.614 289.000 353.000 287.200 353.000 285.000 C 353.000 282.044 353.407 281.000 354.559 281.000 C 355.416 281.000 355.828 280.531 355.474 279.958 C 354.720 278.738 358.702 265.000 359.810 265.000 C 360.225 265.000 361.154 262.998 361.877 260.552 C 362.599 258.105 363.642 255.953 364.194 255.769 C 364.747 255.584 365.350 253.874 365.535 251.967 C 365.721 250.060 365.901 248.893 365.936 249.372 C 366.059 251.058 369.000 247.734 369.000 245.909 C 369.000 244.842 369.528 244.265 370.251 244.543 C 370.955 244.813 372.103 243.663 372.879 241.910 C 374.406 238.461 385.675 226.367 387.024 226.730 C 387.494 226.856 388.156 226.083 388.496 225.012 C 389.084 223.160 397.134 217.000 398.967 217.000 C 399.443 217.000 399.989 216.534 400.179 215.964 C 401.067 213.299 417.000 210.462 417.000 212.969 C 417.000 213.501 417.669 213.681 418.486 213.367 C 419.462 212.993 420.315 213.699 420.971 215.424 C 421.520 216.869 422.652 218.313 423.485 218.633 C 424.318 218.952 425.007 220.178 425.015 221.357 C 425.028 223.149 425.206 223.254 426.102 222.000 C 426.968 220.787 427.082 220.918 426.697 222.685 C 426.435 223.887 426.738 225.069 427.370 225.312 C 429.732 226.218 431.344 237.202 431.433 253.000 C 431.473 260.266 429.055 282.029 427.984 284.030 C 427.443 285.041 427.000 287.725 427.000 289.993 C 427.000 292.488 426.605 293.874 426.000 293.500 C 425.450 293.160 424.931 293.921 424.848 295.191 C 424.764 296.461 424.648 298.097 424.590 298.826 C 424.532 299.555 424.194 299.860 423.838 299.504 C 423.482 299.148 422.863 300.347 422.463 302.168 C 422.063 303.990 420.672 306.874 419.373 308.578 C 418.073 310.282 417.307 311.974 417.671 312.338 C 418.035 312.702 417.829 313.000 417.214 313.000 C 416.598 313.000 415.308 314.688 414.348 316.750 C 413.388 318.813 411.800 321.221 410.819 322.102 C 409.839 322.982 409.328 323.995 409.685 324.352 C 410.042 324.708 409.863 325.000 409.287 325.000 C 408.712 325.000 406.463 326.688 404.289 328.750 C 399.357 333.429 396.485 335.123 394.668 334.426 C 393.893 334.129 392.557 334.586 391.700 335.442 C 390.566 336.577 387.883 337.036 381.821 337.134 C 374.195 337.256 373.917 337.328 378.500 337.990 C 385.303 338.973 394.430 337.584 401.391 334.506 C 421.292 325.704 435.818 295.314 437.665 258.616 C 438.683 238.366 434.894 221.589 427.000 211.401 C 422.299 205.334 412.905 203.647 403.950 207.260 "/></g>
<g fill="#F95404FD" stroke="#F95404FD">
<path d="M 229.475 216.040 C 229.149 216.568 228.009 217.000 226.941 217.000 C 225.873 217.000 225.000 217.450 225.000 218.000 C 225.000 218.550 224.126 219.874 223.057 220.943 C 221.989 222.011 220.582 224.824 219.932 227.193 C 219.281 229.562 218.043 233.075 217.179 235.000 C 215.997 237.637 215.596 242.074 215.555 253.000 C 215.493 269.303 217.360 281.089 222.139 294.572 C 223.712 299.012 225.000 303.175 225.000 303.822 C 225.000 304.470 225.415 305.000 225.922 305.000 C 226.430 305.000 227.393 306.662 228.064 308.694 C 228.734 310.725 230.119 313.285 231.141 314.382 C 232.164 315.479 233.000 316.723 233.000 317.145 C 233.000 317.567 234.794 319.845 236.988 322.207 C 239.181 324.568 240.981 327.063 240.988 327.750 C 240.994 328.438 241.900 329.000 243.000 329.000 C 244.100 329.000 245.000 329.450 245.000 330.000 C 245.000 330.550 245.430 331.000 245.956 331.000 C 246.482 331.000 249.189 332.343 251.972 333.984 C 254.916 335.719 258.772 337.079 261.190 337.234 L 265.348 337.500 260.924 335.244 C 254.057 331.743 252.840 330.850 247.643 325.500 C 242.360 320.062 237.104 312.522 234.749 307.000 C 227.948 291.059 227.083 288.527 223.987 275.500 C 222.135 267.708 221.514 245.231 222.976 238.901 C 225.969 225.943 230.505 221.360 239.425 222.280 C 246.835 223.045 253.980 227.367 264.181 237.256 C 270.992 243.859 279.000 253.611 279.000 255.302 C 279.000 256.144 279.386 256.983 279.857 257.167 C 281.347 257.746 288.475 270.257 290.872 276.500 C 292.139 279.800 293.605 283.574 294.129 284.887 C 298.331 295.410 301.012 323.000 297.833 323.000 C 297.375 323.000 297.000 323.661 297.000 324.469 C 297.000 327.490 299.704 324.737 302.307 319.067 C 304.526 314.232 305.000 311.776 305.000 305.100 C 305.000 299.288 304.647 296.999 303.750 296.998 C 303.063 296.997 302.405 295.637 302.289 293.976 C 302.172 292.315 300.935 287.789 299.539 283.918 C 298.142 280.048 297.000 276.008 297.000 274.940 C 297.000 273.873 296.550 273.000 296.000 273.000 C 295.450 273.000 295.000 272.168 295.000 271.150 C 295.000 270.133 293.658 267.321 292.018 264.900 C 290.378 262.480 289.028 259.713 289.018 258.750 C 289.008 257.788 288.610 257.000 288.133 257.000 C 287.347 257.000 281.610 249.192 281.520 248.000 C 281.388 246.267 259.915 225.000 258.297 225.000 C 257.583 225.000 256.998 224.438 256.995 223.750 C 256.992 223.063 253.730 220.942 249.745 219.037 C 244.287 216.428 240.967 215.513 236.284 215.327 C 232.866 215.191 229.802 215.512 229.475 216.040 "/></g>
<g fill="#DCE5ECFD" stroke="#DCE5ECFD">
<path d="M 227.500 215.158 C 223.710 216.422 221.112 217.562 222.750 217.243 C 224.523 216.898 224.300 218.041 222.126 220.436 C 220.095 222.672 215.986 233.009 216.023 235.788 C 216.052 237.988 218.379 232.876 219.935 227.193 C 220.584 224.824 221.989 222.011 223.057 220.943 C 224.126 219.874 225.000 218.550 225.000 218.000 C 225.000 217.450 225.873 217.000 226.941 217.000 C 228.009 217.000 229.149 216.568 229.475 216.040 C 229.802 215.512 232.866 215.191 236.284 215.327 C 240.967 215.513 244.287 216.428 249.745 219.037 C 253.730 220.942 256.992 223.063 256.995 223.750 C 256.998 224.438 257.583 225.000 258.297 225.000 C 259.915 225.000 281.388 246.267 281.520 248.000 C 281.610 249.192 287.347 257.000 288.133 257.000 C 288.610 257.000 289.008 257.788 289.018 258.750 C 289.028 259.713 290.378 262.480 292.018 264.900 C 293.658 267.321 295.000 270.133 295.000 271.150 C 295.000 272.168 295.450 273.000 296.000 273.000 C 296.550 273.000 297.000 273.873 297.000 274.940 C 297.000 276.008 298.142 280.048 299.539 283.918 C 300.935 287.789 302.172 292.315 302.289 293.976 C 302.438 296.104 303.017 296.997 304.250 296.998 C 306.233 297.000 306.628 295.376 304.794 294.765 C 304.130 294.543 303.486 292.368 303.361 289.931 C 303.237 287.494 303.083 285.950 303.019 286.500 C 302.893 287.587 297.000 272.164 297.000 270.747 C 297.000 270.271 297.520 270.203 298.155 270.595 C 298.876 271.041 299.037 270.869 298.585 270.138 C 298.187 269.494 297.479 269.204 297.011 269.493 C 295.968 270.138 290.000 259.352 290.000 256.822 C 290.000 255.820 289.582 255.000 289.072 255.000 C 288.206 255.000 279.000 243.564 279.000 242.489 C 279.000 242.220 279.483 242.113 280.074 242.250 C 280.665 242.388 280.440 241.882 279.574 241.128 C 278.708 240.373 278.000 240.114 278.000 240.552 C 278.000 240.990 276.875 240.292 275.500 239.000 C 272.390 236.079 272.173 233.990 275.250 236.595 L 277.500 238.500 275.656 236.317 C 274.544 235.001 273.185 234.375 272.232 234.741 C 271.049 235.195 270.819 234.914 271.315 233.622 C 271.679 232.673 271.584 232.139 271.102 232.437 C 270.621 232.734 268.264 231.135 265.864 228.884 C 263.464 226.633 258.800 223.043 255.500 220.905 C 252.200 218.768 249.725 216.961 250.000 216.891 C 250.275 216.821 250.096 216.839 249.602 216.931 C 249.108 217.023 246.961 216.401 244.832 215.549 C 240.514 213.822 232.079 213.631 227.500 215.158 "/></g>
<g fill="#FDE1C5FD" stroke="#FDE1C5FD">
<path d="M 224.068 155.904 C 221.506 159.502 221.449 162.058 223.867 164.847 C 226.241 167.584 232.000 167.763 234.345 165.171 C 236.714 162.554 236.447 157.495 233.811 155.039 C 230.594 152.041 226.564 152.399 224.068 155.904 M 233.548 157.433 C 236.949 162.624 229.926 168.783 225.571 164.429 C 223.712 162.569 223.501 157.899 225.200 156.200 C 227.293 154.107 231.806 154.774 233.548 157.433 "/></g>
<g fill="#FDE1C5FD" stroke="#FDE1C5FD">
<path d="M 305.478 307.345 C 305.454 318.556 304.109 322.469 298.135 328.708 C 292.128 334.981 281.133 338.939 269.616 338.975 C 259.985 339.005 255.382 337.744 247.171 332.822 C 243.691 330.736 241.014 329.585 241.223 330.264 C 241.432 330.944 245.358 333.466 249.948 335.869 C 258.228 340.204 258.374 340.239 268.896 340.311 C 277.593 340.370 280.434 339.996 284.694 338.228 C 296.935 333.150 303.981 326.373 305.965 317.773 C 307.120 312.767 307.297 300.015 306.235 298.345 C 305.831 297.711 305.490 301.761 305.478 307.345 "/></g>
<g fill="#FDE1C5FD" stroke="#FDE1C5FD">
<path d="M 221.208 219.007 C 218.933 221.449 215.689 230.012 214.089 237.799 C 211.856 248.665 213.153 270.511 216.950 286.000 C 218.643 292.905 223.172 305.000 224.064 305.000 C 224.502 305.000 223.718 302.189 222.322 298.754 C 218.563 289.502 215.064 272.910 214.348 260.936 C 213.349 244.244 216.872 226.212 222.296 220.254 C 223.421 219.019 224.085 217.751 223.771 217.438 C 223.458 217.124 222.304 217.831 221.208 219.007 "/></g>
<g fill="#00406CFD" stroke="#00406CFD">
<path d="M 427.690 278.974 C 424.216 295.343 419.022 307.977 411.323 318.788 C 407.289 324.453 399.093 332.088 395.777 333.271 C 395.075 333.521 394.794 334.044 395.153 334.432 C 396.053 335.407 399.592 333.206 404.289 328.750 C 406.463 326.688 408.712 325.000 409.287 325.000 C 409.863 325.000 410.042 324.708 409.685 324.352 C 409.328 323.995 409.839 322.982 410.819 322.102 C 411.800 321.221 413.388 318.813 414.348 316.750 C 415.308 314.688 416.598 313.000 417.214 313.000 C 417.829 313.000 418.035 312.702 417.671 312.338 C 417.307 311.974 418.073 310.282 419.373 308.578 C 420.672 306.874 422.063 303.990 422.463 302.168 C 422.863 300.347 423.482 299.148 423.838 299.504 C 424.194 299.860 424.532 299.555 424.590 298.826 C 424.648 298.097 424.764 296.461 424.848 295.191 C 424.931 293.921 425.450 293.160 426.000 293.500 C 426.605 293.874 427.000 292.488 427.000 289.993 C 427.000 287.725 427.453 285.022 428.007 283.987 C 428.561 282.952 429.124 279.482 429.257 276.276 C 429.500 270.459 429.496 270.465 427.690 278.974 "/></g>
<g fill="#FDE1C5FD" stroke="#FDE1C5FD">
<path d="M 229.250 213.262 C 226.913 213.824 225.000 214.718 225.000 215.249 C 225.000 215.788 225.772 215.882 226.750 215.460 C 231.111 213.582 240.483 213.808 245.816 215.918 C 257.579 220.575 270.769 231.957 282.565 247.630 C 285.668 251.753 288.431 254.902 288.705 254.629 C 289.687 253.646 276.227 237.083 267.613 228.675 C 262.531 223.714 255.292 218.713 248.824 215.693 C 245.580 214.178 235.771 211.796 234.114 212.120 C 233.776 212.186 231.588 212.700 229.250 213.262 "/></g>
<g fill="#DCE5ECFD" stroke="#DCE5ECFD">
<path d="M 326.041 133.500 C 325.934 133.500 325.641 135.321 325.391 137.546 C 325.014 140.903 325.361 141.991 327.431 143.935 C 329.811 146.171 330.042 146.203 332.447 144.627 C 335.510 142.620 336.584 138.960 334.986 135.975 C 333.989 134.110 333.195 133.845 329.935 134.282 C 327.807 134.567 326.105 134.508 326.152 134.150 C 326.198 133.793 326.149 133.500 326.041 133.500 "/></g>
<g fill="#99A1ACFD" stroke="#99A1ACFD">
<path d="M 527.795 383.456 C 525.955 394.332 519.410 403.232 509.560 408.251 C 504.258 410.953 502.435 411.349 494.986 411.420 C 487.289 411.492 485.827 411.183 479.762 408.200 C 471.946 404.356 466.966 398.893 463.421 390.271 C 462.115 387.097 461.041 385.175 461.034 386.000 C 461.011 388.425 465.454 397.221 468.560 400.900 C 472.582 405.665 480.535 410.478 486.874 411.983 C 497.872 414.594 511.453 410.583 519.433 402.366 C 524.010 397.654 528.161 388.868 528.351 383.492 L 528.500 379.287 527.795 383.456 "/></g>
<g fill="#DCE5ECFD" stroke="#DCE5ECFD">
<path d="M 469.223 190.557 C 465.690 193.031 466.365 197.578 470.595 199.803 C 472.214 200.654 473.181 200.562 474.845 199.396 C 477.703 197.394 477.842 191.521 475.066 190.035 C 472.500 188.662 471.844 188.720 469.223 190.557 M 474.066 191.035 C 477.359 192.797 476.001 199.000 472.323 199.000 C 471.621 199.000 470.329 197.906 469.454 196.569 C 467.980 194.321 467.997 193.990 469.681 192.153 C 471.905 189.724 471.710 189.774 474.066 191.035 "/></g>
<g fill="#DCE5ECFD" stroke="#DCE5ECFD">
<path d="M 302.171 319.306 C 299.052 326.285 288.817 335.241 285.971 333.482 C 285.437 333.152 285.000 333.359 285.000 333.941 C 285.000 334.523 284.494 334.888 283.875 334.750 C 283.256 334.613 282.544 335.063 282.292 335.750 C 281.686 337.401 283.279 337.328 287.638 335.507 C 289.604 334.685 291.684 334.305 292.261 334.661 C 292.872 335.039 293.012 334.828 292.595 334.155 C 292.203 333.520 292.314 333.000 292.841 333.000 C 293.368 333.000 295.488 331.313 297.550 329.250 C 299.613 327.188 301.720 325.500 302.233 325.500 C 302.747 325.500 302.871 325.204 302.510 324.843 C 302.148 324.482 302.588 322.764 303.487 321.026 C 304.385 319.288 304.940 317.108 304.720 316.183 C 304.459 315.087 303.569 316.178 302.171 319.306 "/></g>
<g fill="#99A1ACFD" stroke="#99A1ACFD">
<path d="M 391.393 213.358 C 378.607 222.918 365.557 238.988 357.390 255.230 C 351.244 267.452 351.940 267.596 358.343 255.429 C 367.638 237.768 379.727 222.864 391.668 214.343 C 395.201 211.822 397.911 209.577 397.689 209.355 C 397.467 209.133 394.634 210.935 391.393 213.358 "/></g>
<g fill="#FDE1C5FD" stroke="#FDE1C5FD">
<path d="M 467.000 190.000 C 465.900 191.100 465.000 193.025 465.000 194.277 C 465.000 197.542 467.746 201.005 470.307 200.970 C 472.452 200.940 472.456 200.914 470.500 199.805 C 469.400 199.181 468.169 198.182 467.765 197.585 C 464.952 193.429 469.930 187.736 474.541 189.837 C 477.885 191.360 478.028 197.167 474.777 199.443 C 473.022 200.673 472.905 201.000 474.221 201.000 C 476.267 201.000 479.000 197.283 479.000 194.500 C 479.000 193.370 478.299 191.445 477.443 190.223 C 475.408 187.317 469.802 187.198 467.000 190.000 "/></g>
<g fill="#FDE1C5FD" stroke="#FDE1C5FD">
<path d="M 290.000 257.704 C 290.000 258.311 291.576 261.595 293.501 265.002 C 296.481 270.275 302.782 286.892 304.307 293.500 C 304.712 295.257 304.782 295.219 304.884 293.193 C 305.063 289.637 299.211 272.587 295.262 265.157 C 291.439 257.965 290.000 255.927 290.000 257.704 "/></g>
<g fill="#00406CFD" stroke="#00406CFD">
<path d="M 353.000 285.000 C 353.000 287.200 352.614 289.000 352.143 289.000 C 350.769 289.000 349.427 305.938 350.281 312.500 C 350.711 315.800 351.123 319.063 351.198 319.750 C 351.272 320.438 351.756 321.000 352.274 321.000 C 352.791 321.000 352.891 320.213 352.496 319.250 C 350.271 313.826 351.302 296.597 354.650 283.258 C 354.983 281.931 354.760 281.000 354.108 281.000 C 353.482 281.000 353.000 282.739 353.000 285.000 "/></g>
<g fill="#99A1ACFD" stroke="#99A1ACFD">
<path d="M 449.226 347.675 C 450.726 348.643 452.299 350.124 452.723 350.967 C 453.147 351.810 453.737 362.175 454.035 374.000 L 454.577 395.500 454.788 374.398 C 454.994 353.898 454.935 353.199 452.715 349.905 C 451.458 348.040 449.545 346.379 448.465 346.215 C 446.947 345.984 447.120 346.316 449.226 347.675 "/></g>
<g fill="#99A1ACFD" stroke="#99A1ACFD">
<path d="M 295.250 347.080 C 299.370 349.480 299.989 352.963 300.250 375.200 L 300.500 396.500 300.500 373.829 C 300.500 351.211 300.494 351.152 298.076 348.579 C 296.742 347.161 295.167 346.014 294.576 346.030 C 293.984 346.047 294.288 346.519 295.250 347.080 "/></g>
<g fill="#FD9500FD" stroke="#FD9500FD">
<path d="M 227.060 156.941 C 224.760 158.397 224.724 162.346 226.998 163.767 C 228.599 164.767 229.401 164.767 231.000 163.768 C 233.547 162.178 233.584 158.383 231.066 157.035 C 228.752 155.797 228.865 155.800 227.060 156.941 "/></g>
<g fill="#00406CFD" stroke="#00406CFD">
<path d="M 380.362 232.435 C 376.986 235.976 373.612 240.256 372.863 241.948 C 372.098 243.675 370.954 244.812 370.251 244.543 C 369.528 244.265 369.000 244.842 369.000 245.909 C 369.000 247.751 366.079 251.027 365.912 249.372 C 365.864 248.893 365.751 249.972 365.662 251.771 C 365.512 254.807 365.875 254.480 370.731 247.216 C 373.608 242.911 378.333 236.754 381.231 233.531 C 388.532 225.414 387.863 224.569 380.362 232.435 "/></g>
<g fill="#DCE5ECFD" stroke="#DCE5ECFD">
<path d="M 214.020 253.583 C 214.031 258.488 214.532 265.650 215.135 269.500 C 215.737 273.350 216.378 278.300 216.560 280.500 C 216.742 282.700 216.960 284.050 217.045 283.500 C 217.130 282.950 217.560 283.625 218.000 285.000 L 218.801 287.500 218.865 285.000 C 218.900 283.625 218.254 279.800 217.428 276.500 C 216.603 273.200 215.728 264.921 215.484 258.103 C 214.964 243.629 213.991 240.623 214.020 253.583 "/></g>
<g fill="#FD9500FD" stroke="#FD9500FD">
<path d="M 469.681 192.153 C 467.997 193.990 467.980 194.321 469.454 196.569 C 470.329 197.906 471.621 199.000 472.323 199.000 C 476.001 199.000 477.359 192.797 474.066 191.035 C 471.710 189.774 471.905 189.724 469.681 192.153 "/></g>
<g fill="#99A1ACFD" stroke="#99A1ACFD">
<path d="M 429.150 300.798 C 423.099 316.466 411.484 330.634 401.592 334.412 C 399.000 335.402 397.089 336.422 397.346 336.679 C 397.603 336.936 400.288 335.976 403.312 334.546 C 411.537 330.655 420.851 320.272 426.445 308.760 C 428.919 303.667 431.069 298.423 431.222 297.106 C 431.375 295.789 430.442 297.451 429.150 300.798 "/></g>
<g fill="#FDE1C5FD" stroke="#FDE1C5FD">
<path d="M 326.635 134.073 C 323.767 136.329 322.991 141.591 325.200 143.800 C 327.143 145.743 328.465 145.172 326.655 143.171 C 323.128 139.274 325.681 134.000 331.093 134.000 C 335.291 134.000 337.104 138.012 334.755 142.105 C 333.841 143.697 333.432 145.000 333.847 145.000 C 337.208 145.000 338.212 136.406 335.171 133.655 C 332.712 131.429 329.815 131.571 326.635 134.073 "/></g>
<g fill="#FD9500FD" stroke="#FD9500FD">
<path d="M 329.352 135.692 C 325.478 136.450 325.881 143.020 329.800 142.985 C 333.076 142.955 334.252 141.423 333.527 138.125 C 333.150 136.406 332.539 135.061 332.171 135.136 C 331.802 135.211 330.533 135.461 329.352 135.692 "/></g>
<g fill="#00406CFD" stroke="#00406CFD">
<path d="M 427.489 228.319 C 429.304 232.663 431.104 251.054 430.520 259.300 L 430.082 265.500 431.044 260.000 C 431.572 256.975 431.776 252.250 431.496 249.500 C 431.216 246.750 430.915 242.046 430.828 239.046 C 430.642 232.705 428.809 225.770 427.174 225.225 C 426.419 224.973 426.525 226.013 427.489 228.319 "/></g>
<g fill="#DCE5ECFD" stroke="#DCE5ECFD">
<path d="M 224.771 306.250 C 226.048 307.821 230.000 314.880 230.000 315.589 C 230.000 315.880 229.480 315.797 228.845 315.405 C 228.124 314.959 227.963 315.131 228.415 315.862 C 228.813 316.506 229.513 316.801 229.971 316.518 C 230.429 316.235 231.733 317.577 232.868 319.501 C 234.004 321.426 234.610 323.069 234.216 323.152 C 233.822 323.236 234.108 323.352 234.850 323.409 C 235.593 323.466 237.278 324.860 238.595 326.507 C 240.053 328.328 240.987 328.913 240.983 328.000 C 240.978 327.175 239.181 324.568 236.988 322.207 C 234.794 319.845 233.000 317.567 233.000 317.145 C 233.000 316.723 232.164 315.479 231.141 314.382 C 230.119 313.285 228.734 310.725 228.064 308.694 C 227.358 306.555 226.194 305.000 225.300 305.000 C 224.189 305.000 224.040 305.351 224.771 306.250 "/></g>
<g fill="#99A1ACFD" stroke="#99A1ACFD">
<path d="M 476.000 348.978 C 471.030 352.004 468.392 354.710 465.199 360.057 C 462.582 364.440 459.958 374.208 460.122 378.960 C 460.210 381.524 460.480 380.846 461.100 376.500 C 462.724 365.127 467.491 356.191 474.746 350.922 C 480.225 346.942 480.796 346.056 476.000 348.978 "/></g>
<g fill="#99A1ACFD" stroke="#99A1ACFD">
<path d="M 387.692 371.875 C 385.939 380.424 387.803 390.546 392.511 398.038 C 395.305 402.484 400.037 407.296 400.833 406.501 C 401.063 406.271 399.859 404.911 398.158 403.479 C 396.457 402.048 393.588 397.876 391.782 394.208 C 388.791 388.131 388.495 386.697 388.442 378.020 C 388.404 371.777 388.146 369.662 387.692 371.875 "/></g>
<g fill="#99A1ACFD" stroke="#99A1ACFD">
<path d="M 243.500 404.526 C 250.231 410.171 256.007 412.390 264.000 412.403 C 268.778 412.410 272.407 411.885 274.000 410.957 C 276.205 409.672 275.793 409.664 270.500 410.888 C 265.691 412.000 263.413 412.042 259.023 411.099 C 253.418 409.896 246.357 406.340 244.048 403.558 C 243.337 402.701 242.248 402.002 241.628 402.005 C 241.007 402.008 241.850 403.142 243.500 404.526 "/></g>
<g fill="#DCE5ECFD" stroke="#DCE5ECFD">
<path d="M 225.667 155.667 C 224.218 157.115 225.113 158.010 227.000 157.000 C 231.631 154.521 235.418 161.009 230.964 163.791 C 229.279 164.843 228.547 164.796 226.723 163.519 C 224.710 162.109 224.519 162.123 224.510 163.677 C 224.504 164.753 225.419 165.483 227.000 165.662 C 230.780 166.090 232.575 165.228 233.883 162.358 C 235.521 158.763 233.097 155.000 229.144 155.000 C 227.598 155.000 226.033 155.300 225.667 155.667 "/></g>
<g fill="#99A1ACFD" stroke="#99A1ACFD">
<path d="M 372.012 402.687 C 365.938 408.606 358.686 411.483 349.500 411.616 C 342.999 411.710 342.213 411.873 345.305 412.487 C 354.361 414.286 365.733 410.352 372.000 403.253 L 375.500 399.288 372.012 402.687 "/></g>
<g fill="#99A1ACFD" stroke="#99A1ACFD">
<path d="M 455.168 400.327 C 454.856 409.290 446.181 414.272 440.602 408.693 C 439.334 407.424 438.096 405.788 437.852 405.057 C 437.486 403.959 437.025 403.967 435.205 405.104 C 433.992 405.862 433.000 406.919 433.000 407.455 C 433.000 407.990 433.737 407.691 434.639 406.790 C 436.157 405.272 436.515 405.403 439.507 408.576 C 443.171 412.461 446.552 412.969 451.053 410.309 C 454.629 408.197 456.254 404.403 455.736 399.379 C 455.359 395.725 455.326 395.780 455.168 400.327 "/></g>
<g fill="#99A1ACFD" stroke="#99A1ACFD">
<path d="M 219.256 390.271 C 214.194 403.290 211.559 407.133 205.500 410.335 C 203.850 411.207 203.187 411.938 204.027 411.960 C 205.721 412.004 209.787 409.436 211.806 407.046 C 213.994 404.457 220.952 389.664 221.234 387.000 C 221.381 385.625 220.490 387.097 219.256 390.271 "/></g>
<g fill="#99A1ACFD" stroke="#99A1ACFD">
<path d="M 171.750 346.080 C 170.787 346.641 169.297 348.458 168.439 350.119 C 166.312 354.230 161.720 368.054 162.291 368.625 C 162.545 368.878 164.270 364.689 166.126 359.317 C 168.966 351.093 170.037 349.188 172.898 347.274 C 176.209 345.058 175.238 344.049 171.750 346.080 "/></g>
<g fill="#FDE1C5FD" stroke="#FDE1C5FD">
<path d="M 225.000 307.794 C 225.000 308.441 226.350 311.164 228.000 313.846 C 229.650 316.527 231.000 319.008 231.000 319.358 C 231.000 319.709 232.556 321.645 234.458 323.661 C 236.360 325.678 237.656 327.747 237.339 328.260 C 237.022 328.773 237.589 329.033 238.598 328.839 C 240.186 328.533 239.962 327.948 236.932 324.493 C 233.251 320.296 228.022 312.584 227.968 311.271 C 227.914 309.959 225.000 306.545 225.000 307.794 "/></g>
<g fill="#00406CFD" stroke="#00406CFD">
<path d="M 365.000 332.425 C 365.000 332.643 366.942 333.762 369.316 334.911 C 372.677 336.538 375.552 337.000 382.316 337.000 C 387.092 337.000 391.000 336.624 391.000 336.165 C 391.000 335.706 387.513 335.526 383.250 335.765 C 377.021 336.115 374.470 335.791 370.250 334.115 C 367.363 332.968 365.000 332.207 365.000 332.425 "/></g>
<g fill="#99A1ACFD" stroke="#99A1ACFD">
<path d="M 247.488 348.699 C 241.241 352.939 235.735 360.507 234.537 366.500 C 234.032 369.027 234.220 368.870 235.729 365.500 C 240.077 355.798 244.860 350.207 250.861 347.814 C 252.312 347.235 253.045 346.588 252.488 346.377 C 251.931 346.165 249.681 347.210 247.488 348.699 "/></g>
<g fill="#99A1ACFD" stroke="#99A1ACFD">
<path d="M 225.600 348.400 C 229.558 352.358 229.920 355.661 227.444 365.216 C 226.588 368.519 226.079 371.413 226.313 371.647 C 226.998 372.332 230.000 359.402 230.000 355.767 C 230.000 352.432 228.042 348.580 225.163 346.250 C 222.023 343.709 222.307 345.107 225.600 348.400 "/></g>
<g fill="#99A1ACFD" stroke="#99A1ACFD">
<path d="M 413.577 362.940 C 411.969 364.000 410.218 365.684 409.685 366.683 C 409.120 367.743 409.995 367.306 411.782 365.636 C 415.826 361.857 422.836 360.919 427.649 363.511 C 429.492 364.503 431.000 365.694 431.000 366.157 C 431.000 366.621 431.505 367.000 432.122 367.000 C 432.877 367.000 432.819 366.487 431.945 365.434 C 428.134 360.842 418.702 359.561 413.577 362.940 "/></g>
<g fill="#99A1ACFD" stroke="#99A1ACFD">
<path d="M 512.079 348.931 C 518.274 353.038 521.408 356.568 525.011 363.500 C 526.726 366.800 527.818 368.375 527.436 367.000 C 527.055 365.625 525.938 362.925 524.954 361.000 C 522.385 355.974 511.515 346.000 508.606 346.000 C 508.084 346.000 509.647 347.319 512.079 348.931 "/></g>
<g fill="#DCE5ECFD" stroke="#DCE5ECFD">
<path d="M 258.787 338.180 C 261.089 339.093 277.366 339.182 279.668 338.293 C 280.676 337.905 276.004 337.567 269.287 337.543 C 262.570 337.520 257.845 337.806 258.787 338.180 "/></g>
<g fill="#99A1ACFD" stroke="#99A1ACFD">
<path d="M 301.150 401.173 C 300.928 406.608 296.888 411.000 292.111 411.000 C 290.070 411.000 287.769 410.438 286.998 409.750 C 285.806 408.687 285.794 408.761 286.921 410.250 C 288.563 412.421 294.717 412.587 297.640 410.540 C 300.377 408.623 302.260 403.930 301.727 400.357 C 301.356 397.876 301.280 397.984 301.150 401.173 "/></g>
<g fill="#99A1ACFD" stroke="#99A1ACFD">
<path d="M 381.910 380.000 C 381.586 383.025 380.238 388.425 378.916 392.000 L 376.513 398.500 379.439 392.510 C 381.640 388.008 382.383 385.029 382.433 380.510 L 382.500 374.500 381.910 380.000 "/></g>
<g fill="#99A1ACFD" stroke="#99A1ACFD">
<path d="M 316.306 305.598 L 313.500 308.195 316.385 306.098 C 319.941 303.512 326.169 303.312 328.564 305.707 C 329.502 306.645 330.867 308.783 331.596 310.457 C 332.789 313.196 332.926 313.268 332.961 311.173 C 332.982 309.893 331.685 307.531 330.077 305.923 C 326.142 301.988 320.352 301.851 316.306 305.598 "/></g>
<g fill="#99A1ACFD" stroke="#99A1ACFD">
<path d="M 137.987 395.466 C 141.420 404.495 147.937 412.021 152.285 411.978 C 153.944 411.962 153.496 411.495 150.500 410.119 C 145.451 407.801 143.738 405.853 140.473 398.723 C 137.838 392.966 136.242 390.875 137.987 395.466 "/></g>
<g fill="#99A1ACFD" stroke="#99A1ACFD">
<path d="M 364.608 347.948 C 369.352 350.670 372.627 353.562 376.552 358.500 C 377.681 359.920 377.614 359.525 376.321 357.136 C 374.334 353.466 368.128 348.085 363.703 346.195 C 358.900 344.143 359.289 344.898 364.608 347.948 "/></g>
<g fill="#00406CFD" stroke="#00406CFD">
<path d="M 404.500 213.529 C 402.300 214.321 400.388 214.977 400.250 214.985 C 400.113 214.993 400.000 215.380 400.000 215.845 C 400.000 216.309 402.570 215.822 405.710 214.762 C 408.937 213.673 412.634 213.077 414.210 213.392 C 415.745 213.699 417.000 213.511 417.000 212.975 C 417.000 211.526 409.085 211.877 404.500 213.529 "/></g>
<g fill="#99A1ACFD" stroke="#99A1ACFD">
<path d="M 346.005 317.044 C 346.014 319.733 353.508 328.471 358.527 331.645 C 364.089 335.162 363.662 334.626 357.000 329.727 C 354.525 327.907 351.038 323.981 349.250 321.003 C 347.463 318.025 346.002 316.244 346.005 317.044 "/></g>
<g fill="#DCE5ECFD" stroke="#DCE5ECFD">
<path d="M 242.000 329.452 C 242.000 330.358 254.280 337.073 255.309 336.730 C 256.371 336.376 247.518 331.000 245.874 331.000 C 245.393 331.000 245.000 330.550 245.000 330.000 C 245.000 329.450 244.325 329.000 243.500 329.000 C 242.675 329.000 242.000 329.203 242.000 329.452 "/></g>
<g fill="#00406CFD" stroke="#00406CFD">
<path d="M 356.915 272.053 C 354.308 280.636 354.913 282.283 357.728 274.268 C 358.843 271.096 360.083 267.713 360.484 266.750 C 360.916 265.714 360.774 265.000 360.136 265.000 C 359.543 265.000 358.094 268.174 356.915 272.053 "/></g>
<g fill="#99A1ACFD" stroke="#99A1ACFD">
<path d="M 259.823 362.778 C 258.351 363.749 256.264 365.666 255.185 367.038 C 253.111 369.674 250.534 377.406 252.039 376.476 C 252.525 376.176 253.202 374.438 253.544 372.615 C 254.283 368.676 258.076 364.310 262.390 362.432 C 264.100 361.688 264.825 361.064 264.000 361.046 C 263.175 361.028 261.296 361.808 259.823 362.778 "/></g>
<g fill="#99A1ACFD" stroke="#99A1ACFD">
<path d="M 433.353 222.750 C 433.622 223.713 434.182 225.625 434.598 227.000 C 435.015 228.375 435.936 232.425 436.646 236.000 L 437.936 242.500 437.412 237.000 C 436.874 231.362 434.251 221.000 433.362 221.000 C 433.089 221.000 433.085 221.788 433.353 222.750 "/></g>
<g fill="#99A1ACFD" stroke="#99A1ACFD">
<path d="M 489.836 361.820 C 487.465 362.789 481.000 368.848 481.000 370.101 C 481.000 370.680 482.174 369.759 483.608 368.054 C 486.832 364.222 489.354 362.804 494.500 361.930 L 498.500 361.250 495.000 361.195 C 493.075 361.165 490.751 361.446 489.836 361.820 "/></g>
<g fill="#99A1ACFD" stroke="#99A1ACFD">
<path d="M 205.141 366.514 C 203.843 371.245 202.987 375.321 203.239 375.572 C 203.814 376.147 206.997 364.454 207.285 360.707 C 207.403 359.170 206.438 361.784 205.141 366.514 "/></g>
<g fill="#DCE5ECFD" stroke="#DCE5ECFD">
<path d="M 219.000 288.943 C 219.000 290.584 224.239 304.094 224.698 303.636 C 225.165 303.169 219.996 288.000 219.370 288.000 C 219.167 288.000 219.000 288.424 219.000 288.943 "/></g>
<g fill="#99A1ACFD" stroke="#99A1ACFD">
<path d="M 172.588 392.525 C 168.752 403.329 168.590 403.903 169.999 401.705 C 171.424 399.482 176.129 385.795 175.637 385.304 C 175.440 385.107 174.068 388.356 172.588 392.525 "/></g>
<g fill="#99A1ACFD" stroke="#99A1ACFD">
<path d="M 360.465 386.390 C 359.107 389.050 356.977 391.144 354.058 392.688 C 351.653 393.959 350.319 394.998 351.093 394.996 C 355.072 394.986 363.544 386.603 362.761 383.452 C 362.617 382.876 361.584 384.198 360.465 386.390 "/></g>
<g fill="#99A1ACFD" stroke="#99A1ACFD">
<path d="M 252.115 381.600 C 252.001 384.672 256.866 392.827 259.006 393.150 C 261.892 393.586 262.083 393.380 259.901 392.188 C 256.566 390.367 253.753 386.282 252.927 382.063 L 252.230 378.500 252.115 381.600 "/></g>
<g fill="#99A1ACFD" stroke="#99A1ACFD">
<path d="M 430.738 390.785 C 428.636 392.835 426.606 393.625 422.238 394.092 L 416.500 394.706 421.346 394.853 C 426.539 395.011 431.207 392.961 432.655 389.887 C 433.190 388.751 432.486 389.081 430.738 390.785 "/></g>
<g fill="#99A1ACFD" stroke="#99A1ACFD">
<path d="M 405.000 346.963 C 403.075 347.995 399.475 351.012 397.000 353.669 L 392.500 358.500 397.000 354.315 C 399.475 352.013 403.525 348.981 406.000 347.577 C 411.152 344.654 410.294 344.127 405.000 346.963 "/></g>
<g fill="#99A1ACFD" stroke="#99A1ACFD">
<path d="M 183.674 346.943 C 186.017 348.371 187.429 350.473 189.067 354.963 C 190.287 358.310 191.462 360.871 191.678 360.655 C 191.894 360.440 191.126 357.739 189.972 354.654 C 188.012 349.416 184.184 344.995 181.615 345.004 C 181.002 345.006 181.928 345.878 183.674 346.943 "/></g>
<g fill="#99A1ACFD" stroke="#99A1ACFD">
<path d="M 129.616 347.657 C 126.535 350.737 125.689 353.380 126.266 358.112 C 126.598 360.825 126.712 360.534 126.840 356.650 C 126.974 352.578 127.545 351.255 130.400 348.400 C 132.270 346.530 133.456 345.000 133.036 345.000 C 132.616 345.000 131.077 346.195 129.616 347.657 "/></g>
<g fill="#99A1ACFD" stroke="#99A1ACFD">
<path d="M 509.150 381.264 C 508.963 384.704 505.381 390.294 502.029 392.376 C 500.638 393.240 499.950 393.949 500.500 393.951 C 503.876 393.966 510.301 385.113 509.716 381.252 L 509.300 378.500 509.150 381.264 "/></g>
<g fill="#99A1ACFD" stroke="#99A1ACFD">
<path d="M 372.500 335.071 C 373.600 335.505 377.650 335.856 381.500 335.851 C 390.364 335.840 388.895 335.286 378.500 334.719 C 374.067 334.477 371.392 334.634 372.500 335.071 "/></g>
<g fill="#99A1ACFD" stroke="#99A1ACFD">
<path d="M 414.779 205.029 C 417.682 205.559 421.170 206.720 422.529 207.611 C 423.888 208.501 425.000 208.800 425.000 208.276 C 425.000 206.724 419.964 204.887 414.547 204.462 L 409.500 204.066 414.779 205.029 "/></g>
<g fill="#00406CFD" stroke="#00406CFD">
<path d="M 393.638 219.912 C 391.514 221.417 389.310 223.481 388.741 224.498 C 388.172 225.515 390.253 224.358 393.365 221.927 C 399.586 217.069 399.791 215.550 393.638 219.912 "/></g>
<g fill="#99A1ACFD" stroke="#99A1ACFD">
<path d="M 279.485 348.555 L 283.250 351.109 285.164 349.055 C 286.217 347.925 287.585 347.000 288.206 347.000 C 288.826 347.000 289.064 346.731 288.736 346.403 C 288.407 346.074 286.813 346.588 285.192 347.545 C 282.450 349.165 282.084 349.172 279.901 347.643 C 278.610 346.739 277.142 346.000 276.638 346.000 C 276.134 346.000 277.415 347.150 279.485 348.555 "/></g>
<g fill="#99A1ACFD" stroke="#99A1ACFD">
<path d="M 350.146 271.569 C 348.966 274.654 348.026 277.925 348.059 278.839 C 348.091 279.753 349.200 277.372 350.524 273.549 C 353.430 265.155 353.154 263.710 350.146 271.569 "/></g>
<g fill="#99A1ACFD" stroke="#99A1ACFD">
<path d="M 279.108 406.058 C 275.912 408.720 276.986 409.585 280.275 406.998 L 282.855 404.969 283.519 407.060 C 283.884 408.210 284.403 408.930 284.672 408.661 C 285.303 408.030 283.157 403.989 282.215 404.033 C 281.822 404.052 280.424 404.963 279.108 406.058 "/></g>
<g fill="#99A1ACFD" stroke="#99A1ACFD">
<path d="M 185.044 399.390 C 184.945 401.385 189.312 408.711 191.333 409.943 L 193.500 411.263 191.365 408.881 C 190.191 407.572 188.299 404.700 187.160 402.500 C 186.020 400.300 185.069 398.901 185.044 399.390 "/></g>
<g fill="#99A1ACFD" stroke="#99A1ACFD">
<path d="M 234.000 388.961 C 234.000 390.501 238.753 399.729 239.917 400.449 C 240.442 400.773 239.326 398.073 237.436 394.447 C 235.546 390.821 234.000 388.352 234.000 388.961 "/></g>
<g fill="#99A1ACFD" stroke="#99A1ACFD">
<path d="M 337.809 364.750 C 334.907 367.862 332.990 371.240 333.022 373.184 C 333.034 373.908 333.876 372.667 334.894 370.427 C 335.912 368.186 338.039 365.388 339.622 364.208 C 341.205 363.029 342.022 362.049 341.437 362.032 C 340.852 362.014 339.220 363.238 337.809 364.750 "/></g>
<g fill="#99A1ACFD" stroke="#99A1ACFD">
<path d="M 270.948 362.018 C 272.295 362.604 274.829 364.301 276.580 365.791 L 279.763 368.500 277.111 365.327 C 275.652 363.581 273.118 361.883 271.479 361.554 C 268.668 360.988 268.638 361.014 270.948 362.018 "/></g>
<g fill="#99A1ACFD" stroke="#99A1ACFD">
<path d="M 435.125 279.625 C 434.455 283.263 434.098 286.431 434.331 286.665 C 434.565 286.899 435.316 284.124 436.000 280.500 C 436.684 276.876 437.041 273.708 436.794 273.460 C 436.546 273.213 435.795 275.987 435.125 279.625 "/></g>
<g fill="#99A1ACFD" stroke="#99A1ACFD">
<path d="M 417.441 215.532 C 418.509 216.339 419.649 217.000 419.976 217.000 C 420.302 217.000 421.422 218.444 422.465 220.209 C 423.507 221.975 424.510 222.969 424.694 222.419 C 425.149 221.052 418.560 213.992 416.865 214.032 C 415.959 214.053 416.153 214.558 417.441 215.532 "/></g>
<g fill="#99A1ACFD" stroke="#99A1ACFD">
<path d="M 408.000 387.195 C 408.000 387.722 409.315 389.469 410.923 391.077 C 412.531 392.685 414.278 394.000 414.805 394.000 C 415.333 394.000 414.018 392.253 411.882 390.118 C 409.747 387.982 408.000 386.667 408.000 387.195 "/></g>
<g fill="#99A1ACFD" stroke="#99A1ACFD">
<path d="M 480.043 383.000 C 479.987 385.362 483.662 390.756 486.196 392.032 C 488.196 393.038 488.139 392.868 485.762 390.740 C 484.257 389.392 482.362 386.761 481.552 384.894 C 480.741 383.027 480.062 382.175 480.043 383.000 "/></g>
<g fill="#99A1ACFD" stroke="#99A1ACFD">
<path d="M 378.497 362.500 C 378.932 363.600 379.868 366.525 380.577 369.000 C 381.285 371.475 381.895 372.555 381.933 371.399 C 382.016 368.805 380.081 362.850 378.716 361.500 C 378.037 360.828 377.965 361.155 378.497 362.500 "/></g>
<g fill="#99A1ACFD" stroke="#99A1ACFD">
<path d="M 431.500 346.665 C 433.150 347.537 435.214 348.873 436.088 349.633 C 437.461 350.829 437.934 350.713 439.588 348.775 C 441.230 346.850 441.247 346.731 439.706 347.926 C 438.144 349.138 437.414 349.039 434.070 347.159 C 431.957 345.972 429.839 345.018 429.364 345.040 C 428.889 345.062 429.850 345.793 431.500 346.665 "/></g>
<g fill="#99A1ACFD" stroke="#99A1ACFD">
<path d="M 181.505 388.390 C 181.837 389.979 182.740 392.679 183.513 394.390 L 184.917 397.500 184.296 394.500 C 183.954 392.850 183.051 390.150 182.288 388.500 L 180.901 385.500 181.505 388.390 "/></g>
<g fill="#99A1ACFD" stroke="#99A1ACFD">
<path d="M 333.063 382.800 C 332.965 384.810 335.549 389.290 338.082 391.502 C 340.111 393.274 340.071 393.101 337.734 389.970 C 336.284 388.029 334.655 385.329 334.113 383.970 C 333.570 382.612 333.098 382.085 333.063 382.800 "/></g>
<g fill="#99A1ACFD" stroke="#99A1ACFD">
<path d="M 337.646 347.465 C 335.608 348.849 333.432 349.872 332.810 349.740 C 332.096 349.589 332.131 349.813 332.903 350.348 C 333.646 350.863 334.788 350.597 335.815 349.668 C 336.744 348.827 338.853 347.604 340.502 346.950 C 342.151 346.297 343.017 345.579 342.426 345.356 C 341.835 345.133 339.684 346.082 337.646 347.465 "/></g>
<g fill="#99A1ACFD" stroke="#99A1ACFD">
<path d="M 386.000 228.961 L 380.500 234.551 386.000 228.961 L 391.500 223.370 386.000 228.961 "/></g>
<g fill="#99A1ACFD" stroke="#99A1ACFD">
<path d="M 426.000 209.878 C 426.000 210.360 426.634 211.281 427.408 211.924 C 428.182 212.566 429.645 214.759 430.658 216.796 C 431.671 218.833 432.354 219.652 432.175 218.616 C 431.866 216.823 427.141 209.000 426.367 209.000 C 426.165 209.000 426.000 209.395 426.000 209.878 "/></g>
<g fill="#99A1ACFD" stroke="#99A1ACFD">
<path d="M 280.116 385.104 C 280.052 385.986 278.850 387.949 277.445 389.465 C 276.039 390.982 275.083 392.416 275.320 392.654 C 276.206 393.540 281.078 386.668 280.664 385.117 C 280.271 383.647 280.221 383.646 280.116 385.104 "/></g>
<g fill="#99A1ACFD" stroke="#99A1ACFD">
<path d="M 130.430 373.187 C 132.314 380.110 133.469 383.210 133.187 380.588 C 133.014 378.986 132.220 376.286 131.422 374.588 C 130.624 372.890 130.177 372.259 130.430 373.187 "/></g>
<g fill="#99A1ACFD" stroke="#99A1ACFD">
<path d="M 211.548 348.126 C 210.101 349.845 209.108 351.758 209.342 352.376 C 209.576 352.994 210.100 352.600 210.507 351.500 C 210.914 350.400 212.429 348.490 213.873 347.255 C 215.318 346.020 215.978 345.008 215.339 345.005 C 214.700 345.002 212.994 346.407 211.548 348.126 "/></g>
<g fill="#99A1ACFD" stroke="#99A1ACFD">
<path d="M 402.500 207.017 C 400.300 208.098 399.596 208.705 400.935 208.365 C 404.686 207.414 409.684 205.080 408.000 205.065 C 407.175 205.058 404.700 205.937 402.500 207.017 "/></g>
<g fill="#00406CFD" stroke="#00406CFD">
<path d="M 362.206 259.306 C 360.396 264.311 360.905 265.049 363.030 260.500 C 364.057 258.300 364.563 256.381 364.155 256.235 C 363.746 256.090 362.870 257.472 362.206 259.306 "/></g>
</svg>
